<svg xmlns="http://www.w3.org/2000/svg" style="display: none;">
    <symbol id="icon-futbol" viewBox="0 0 24 24" fill="none" stroke="currentColor" stroke-width="2" stroke-linecap="round" stroke-linejoin="round">
        <circle cx="12" cy="12" r="10"></circle>
        <path d="M12 2v20"></path>
        <path d="M12 12l4-1.5M12 12l-4-1.5M12 12l-1 4M12 12l1 4M12 12 8 8m8 8-4-4"></path>
        <path d="M12 7 8 8.5 7 12 8.5 15.5l3.5 1h0M12 17l4-1.5 1-3.5-1.5-3.5-3.5-1h0" fill="currentColor" fill-opacity="0.1"></path>
    </symbol>
    
<symbol id="icon-padel" viewBox="0 0 24 24" fill="none" stroke="currentColor" stroke-width="2" stroke-linecap="round" stroke-linejoin="round">
    <path d="M11.5 3.5a5.5 5.5 0 1 0 0 11 5.5 5.5 0 0 0 0-11z" />
    <path d="M7.5 14.5L3 21" />
    <circle cx="9.5" cy="7.5" r="0.5" fill="currentColor"/>
    <circle cx="11.5" cy="9.5" r="0.5" fill="currentColor"/>
    <circle cx="13.5" cy="7.5" r="0.5" fill="currentColor"/>
</symbol>


    <symbol id="icon-tenis" viewBox="0 0 24 24" fill="none" stroke="currentColor" stroke-width="2" stroke-linecap="round" stroke-linejoin="round">
        <circle cx="10" cy="10" r="7"></circle>
        <path d="M15 15l6 6m-3-3l1.5-1.5"></path>
        <path d="M5 10h10M10 5v10"></path>
        <path d="M6 7l8 8m-8 0l8-8" stroke-width="1"></path>
    </symbol>


    <symbol id="icon-piscina" viewBox="0 0 24 24" fill="none" stroke="currentColor" stroke-width="2" stroke-linecap="round" stroke-linejoin="round">
        <path d="M2 12c1.5 0 1.5-2 3-2s1.5 2 3 2 1.5-2 3-2 1.5 2 3 2 1.5-2 3-2 1.5 2 3 2" />
        <path d="M2 17c1.5 0 1.5-2 3-2s1.5 2 3 2 1.5-2 3-2 1.5 2 3 2 1.5-2 3-2 1.5 2 3 2" />
        <path d="M16 8V2h4v6" />
        <path d="M16 5h4" />
    </symbol>
    
    <symbol id="icon-basket" viewBox="0 0 24 24" fill="none" stroke="currentColor" stroke-width="2" stroke-linecap="round" stroke-linejoin="round"><circle cx="12" cy="12" r="10"></circle><path d="M12 2v20M2 12h20M12 12l7.5-7.5M12 12 4.5 4.5"></path></symbol>
    
    <symbol id="icon-multi" viewBox="0 0 24 24" fill="none" stroke="currentColor" stroke-width="2" stroke-linecap="round" stroke-linejoin="round"><rect x="2" y="3" width="20" height="18" rx="2"></rect><path d="M2 12h20M12 3v18"></path></symbol>
</svg>



