<svg xmlns="http://www.w3.org/2000/svg" style="display: none;">
    <symbol id="icon-level" viewBox="0 0 24 24" fill="none" stroke="currentColor" stroke-width="2" stroke-linecap="round" stroke-linejoin="round">
        <path d="M17 21v-2a4 4 0 0 0-4-4H5a4 4 0 0 0-4 4v2"></path>
        <circle cx="9" cy="7" r="4"></circle>
        <path d="M23 21v-2a4 4 0 0 0-3-3.87"></path>
        <path d="M16 3.13a4 4 0 0 1 0 7.75"></path>
    </symbol>

    <symbol id="icon-chat" viewBox="0 0 24 24" fill="none" stroke="currentColor" stroke-width="2" stroke-linecap="round" stroke-linejoin="round">
        <path d="M21 15a2 2 0 0 1-2 2H7l-4 4V5a2 2 0 0 1 2-2h12a2 2 0 0 1 2 2z"></path>
    </symbol>

    <symbol id="icon-search-user" viewBox="0 0 24 24" fill="none" stroke="currentColor" stroke-width="2.5" stroke-linecap="round" stroke-linejoin="round">
        <path d="M16 21v-2a4 4 0 0 0-4-4H5a4 4 0 0 0-4 4v2"></path>
        <circle cx="9" cy="7" r="4"></circle>
        <polyline points="16 11 18 13 22 9"></polyline>
    </symbol>

    <symbol id="connection-curve" viewBox="0 0 100 20" fill="none" stroke="currentColor" stroke-width="2">
        <path d="M0,10 Q50,20 100,10" stroke-dasharray="5,5" />
    </symbol>
</svg>